<svg version="1.1" xmlns="http://www.w3.org/2000/svg" xmlns:xlink="http://www.w3.org/1999/xlink" width="48" height="48"><defs><linearGradient x1="14.2311" y1="14.22988" x2="54.9821" y2="54.98331" gradientUnits="userSpaceOnUse" id="color-1"><stop offset="0" stop-color="#000000" stop-opacity="0.3"></stop><stop offset="1" stop-color="#000000" stop-opacity="0"></stop></linearGradient><filter id="dropshadow-base"><feColorMatrix type="matrix" values="0 0 0 0 0  0 0 0 0 0  0 0 0 0 0  0 0 0 .8 0"></feColorMatrix> <feOffset dx="0" dy="1"></feOffset> <feGaussianBlur stdDeviation="1"></feGaussianBlur> <feComposite in="SourceGraphic"></feComposite></filter><filter id="dropshadow-banner" x="-10%" y="-10%" width="120%" height="130%"><feColorMatrix type="matrix" values="0 0 0 0 0  0 0 0 0 0  0 0 0 0 0  0 0 0 .4 0"></feColorMatrix> <feOffset dx="0" dy="1"></feOffset> <feGaussianBlur stdDeviation="0.5"></feGaussianBlur> <feComposite in="SourceGraphic"></feComposite></filter></defs><g fill="none" fill-rule="nonzero" stroke="none" stroke-width="none" stroke-linecap="butt" stroke-linejoin="miter" stroke-miterlimit="10" stroke-dasharray="" stroke-dashoffset="0" font-family="none" font-weight="none" font-size="none" text-anchor="none" style="mix-blend-mode: normal"><path d="M2,24c0,-12.15026 9.84974,-22 22,-22c12.15026,0 22,9.84974 22,22c0,12.15026 -9.84974,22 -22,22c-12.15026,0 -22,-9.84974 -22,-22z" id="base 1 5" fill="#e91e63" stroke-width="1"></path><path d="M14.5162,29.25727c-0.38014,-0.38014 -0.38014,-0.99906 0,-1.3792l3.87929,-3.87441l-3.87929,-3.87929c-0.38014,-0.38014 -0.38014,-0.99906 0,-1.3792l4.23018,-4.22531c0.19007,-0.19007 0.43861,-0.28753 0.68716,-0.28753c0.24855,0 0.49709,0.09747 0.68716,0.28753l3.87929,3.87441l3.87929,-3.87929c0.38014,-0.38014 0.99906,-0.38014 1.3792,0l15.81672,15.81672c-2.1175,7.05811 -7.68378,12.62482 -14.74163,14.74294z" fill="url(#color-1)" stroke-width="1"></path><path d="M29.6045,23.99878l3.87929,-3.87929c0.38013,-0.38013 0.38013,-0.99906 0,-1.37919l-4.22531,-4.22531c-0.38013,-0.38013 -0.99906,-0.38013 -1.37919,0l-3.87929,3.87929l-3.87929,-3.87442c-0.19007,-0.19007 -0.43861,-0.28754 -0.68716,-0.28754c-0.24855,0 -0.49709,0.09747 -0.68716,0.28754l-4.23018,4.22531c-0.38013,0.38013 -0.38013,0.99906 0,1.37919l3.87929,3.87929l-3.87929,3.87442c-0.38013,0.38013 -0.38013,0.99906 0,1.37919l4.22531,4.22531c0.38013,0.38013 0.99906,0.38013 1.37919,0l3.87929,-3.87929l3.87929,3.87929c0.19007,0.19007 0.43861,0.28754 0.68716,0.28754c0.24855,0 0.49709,-0.09747 0.68716,-0.28754l4.22531,-4.22531c0.38013,-0.38013 0.38013,-0.99906 0,-1.37919zM24.01949,21.0552c0.53608,0 0.9747,0.43861 0.9747,0.9747c0,0.53608 -0.43861,0.9747 -0.9747,0.9747c-0.53608,0 -0.9747,-0.43861 -0.9747,-0.9747c0,-0.53608 0.43861,-0.9747 0.9747,-0.9747zM19.42868,22.9656l-3.53327,-3.53327l3.53815,-3.53815l3.53327,3.53327zM22.0701,24.95398c-0.53608,0 -0.9747,-0.43861 -0.9747,-0.9747c0,-0.53608 0.43861,-0.9747 0.9747,-0.9747c0.53608,0 0.9747,0.43861 0.9747,0.9747c0,0.53608 -0.43861,0.9747 -0.9747,0.9747zM24.01949,26.90338c-0.53608,0 -0.9747,-0.43861 -0.9747,-0.9747c0,-0.53608 0.43861,-0.9747 0.9747,-0.9747c0.53608,0 0.9747,0.43861 0.9747,0.9747c0,0.53608 -0.43861,0.9747 -0.9747,0.9747zM25.96889,23.00459c0.53608,0 0.9747,0.43861 0.9747,0.9747c0,0.53608 -0.43861,0.9747 -0.9747,0.9747c-0.53608,0 -0.9747,-0.43861 -0.9747,-0.9747c0,-0.53608 0.43861,-0.9747 0.9747,-0.9747zM28.56645,32.10338l-3.53327,-3.53327l3.53815,-3.53815l3.53327,3.53327z" fill="none" stroke-width="0"></path><path d="M33.47892,27.87807c0.38013,0.38013 0.38013,0.99906 0,1.37919l-4.22531,4.22531c-0.19007,0.19007 -0.43861,0.28754 -0.68716,0.28754c-0.24855,0 -0.49709,-0.09747 -0.68716,-0.28754l-3.87929,-3.87929l-3.87929,3.87929c-0.38013,0.38013 -0.99906,0.38013 -1.37919,0l-4.22531,-4.22531c-0.38013,-0.38013 -0.38013,-0.99906 0,-1.37919l3.87929,-3.87442l-3.87929,-3.87929c-0.38013,-0.38013 -0.38013,-0.99906 0,-1.37919l4.23018,-4.22531c0.19007,-0.19007 0.43861,-0.28754 0.68716,-0.28754c0.24855,0 0.49709,0.09747 0.68716,0.28754l3.87929,3.87442l3.87929,-3.87929c0.38013,-0.38013 0.99906,-0.38013 1.37919,0l4.22531,4.22531c0.38013,0.38013 0.38013,0.99906 0,1.37919l-3.87929,3.87929zM23.0448,22.0299c0,0.53608 0.43861,0.9747 0.9747,0.9747c0.53608,0 0.9747,-0.43861 0.9747,-0.9747c0,-0.53608 -0.43861,-0.9747 -0.9747,-0.9747c-0.53608,0 -0.9747,0.43861 -0.9747,0.9747zM22.96682,19.42746l-3.53327,-3.53327l-3.53815,3.53815l3.53327,3.53327zM23.0448,23.97929c0,-0.53608 -0.43861,-0.9747 -0.9747,-0.9747c-0.53608,0 -0.9747,0.43861 -0.9747,0.9747c0,0.53608 0.43861,0.9747 0.9747,0.9747c0.53608,0 0.9747,-0.43861 0.9747,-0.9747zM24.99419,25.92868c0,-0.53608 -0.43861,-0.9747 -0.9747,-0.9747c-0.53608,0 -0.9747,0.43861 -0.9747,0.9747c0,0.53608 0.43861,0.9747 0.9747,0.9747c0.53608,0 0.9747,-0.43861 0.9747,-0.9747zM24.99419,23.97929c0,0.53608 0.43861,0.9747 0.9747,0.9747c0.53608,0 0.9747,-0.43861 0.9747,-0.9747c0,-0.53608 -0.43861,-0.9747 -0.9747,-0.9747c-0.53608,0 -0.9747,0.43861 -0.9747,0.9747zM32.1046,28.56523l-3.53327,-3.53327l-3.53815,3.53815l3.53327,3.53327z" fill="#ffffff" stroke-width="0"></path><path d="M2,24c0,-12.15026 9.84974,-22 22,-22c12.15026,0 22,9.84974 22,22c0,12.15026 -9.84974,22 -22,22c-12.15026,0 -22,-9.84974 -22,-22z" id="base 1 1 1" fill="none" stroke-width="1"></path><g fill="#000000" stroke-width="1" font-family="Roboto, sans-serif" font-weight="400" font-size="14" text-anchor="start"></g><rect x="2" y="2" width="44" height="22" fill="none" stroke-width="1"></rect><path d="M2,24v-22h44v22z" fill="none" stroke-width="1"></path><path d="M2,24v-22h44v22z" fill="none" stroke-width="1"></path><path d="M2,24v-22h44v22z" fill="none" stroke-width="1"></path><path d="M2,24v-22h44v22z" fill="none" stroke-width="1"></path></g></svg>